# xmcd
#
# Track frame offsets:
#	150
#	10455
#	21203
#	34816
#	49911
#	63713
#	76930
#	90985
#	105072
#	118755
#	130306
#	152715
#	168123
#	182215
#	195959
#	206043
#	224528
#	240219
#
# Disc length: 3331 seconds
#
# Revision: 0
# Processed by: cddbd v1.5.1PL0 Copyright (c) Steve Scherf et al.
# Submitted via: dBpowerAMP V4.0
#
DISCID=e80d0112
DTITLE=Louis Armstrong - All time greatest hits
DYEAR=1994
DGENRE=Blues
TTITLE0=What a wonderful world
TTITLE1=Hello Dolly !
TTITLE2=Sittin' in the sun
TTITLE3=Mack the Knife
TTITLE4=A kiss to build a dream on
TTITLE5=It takes two to tango
TTITLE6=That lucky old sun
TTITLE7=Kiss of fire
TTITLE8=(When we are dancin') I get ideas
TTITLE9=Gone fishin'
TTITLE10=Skokiaan
TTITLE11=La vie en rose
TTITLE12=The dummy song
TTITLE13=Chloe
TTITLE14=I still get jealous
TTITLE15=When you're smiling (the whole world smiles with you)
TTITLE16=Blueberry hill
TTITLE17=When it's sleepy time down South
EXTD=
EXTT0=
EXTT1=
EXTT2=
EXTT3=
EXTT4=
EXTT5=
EXTT6=
EXTT7=
EXTT8=
EXTT9=
EXTT10=
EXTT11=
EXTT12=
EXTT13=
EXTT14=
EXTT15=
EXTT16=
EXTT17=
PLAYORDER=
